<svg width="18" height="20" viewBox="0 0 18 20" fill="none" xmlns="http://www.w3.org/2000/svg">
<path d="M13.75 6.25V5C13.75 2.24297 11.507 0 8.75 0C5.99297 0 3.75 2.24297 3.75 5V6.25H0V16.875C0 18.6009 1.3991 20 3.125 20H14.375C16.1009 20 17.5 18.6009 17.5 16.875V6.25H13.75ZM6.25 5C6.25 3.62148 7.37148 2.5 8.75 2.5C10.1285 2.5 11.25 3.62148 11.25 5V6.25H6.25V5ZM12.5 9.6875C11.9822 9.6875 11.5625 9.26777 11.5625 8.75C11.5625 8.23223 11.9822 7.8125 12.5 7.8125C13.0178 7.8125 13.4375 8.23223 13.4375 8.75C13.4375 9.26777 13.0178 9.6875 12.5 9.6875ZM5 9.6875C4.48223 9.6875 4.0625 9.26777 4.0625 8.75C4.0625 8.23223 4.48223 7.8125 5 7.8125C5.51777 7.8125 5.9375 8.23223 5.9375 8.75C5.9375 9.26777 5.51777 9.6875 5 9.6875Z" fill="#453885"/>
</svg>
